<svg xmlns="http://www.w3.org/2000/svg" width="114" height="38" viewBox="0 0 114 38" fill="none">
  <path d="M48.731 19.7267C48.731 25.1196 44.5122 29.0936 39.3346 29.0936C34.1571 29.0936 29.9382 25.1196 29.9382 19.7267C29.9382 14.2958 34.1571 10.3599 39.3346 10.3599C44.5122 10.3599 48.731 14.2958 48.731 19.7267ZM44.6177 19.7267C44.6177 16.3567 42.1726 14.0509 39.3346 14.0509C36.4967 14.0509 34.0515 16.3567 34.0515 19.7267C34.0515 23.063 36.4967 25.4026 39.3346 25.4026C42.1726 25.4026 44.6177 23.0587 44.6177 19.7267Z" fill="white"/>
  <path d="M69.0013 19.7267C69.0013 25.1196 64.7824 29.0936 59.6049 29.0936C54.4274 29.0936 50.2085 25.1196 50.2085 19.7267C50.2085 14.3 54.4274 10.3599 59.6049 10.3599C64.7824 10.3599 69.0013 14.2958 69.0013 19.7267ZM64.888 19.7267C64.888 16.3567 62.4428 14.0509 59.6049 14.0509C56.767 14.0509 54.3218 16.3567 54.3218 19.7267C54.3218 23.063 56.767 25.4026 59.6049 25.4026C62.4428 25.4026 64.888 23.0587 64.888 19.7267Z" fill="white"/>
  <path d="M88.4281 10.9258V27.7422C88.4281 34.6596 84.3486 37.4849 79.5258 37.4849C74.9859 37.4849 72.2536 34.4484 71.2231 31.9653L74.8043 30.4745C75.442 31.9991 77.0046 33.7981 79.5216 33.7981C82.6086 33.7981 84.5217 31.8935 84.5217 28.3081V26.9609H84.3781C83.4575 28.0969 81.6838 29.0893 79.4455 29.0893C74.7621 29.0893 70.4714 25.0098 70.4714 19.7605C70.4714 14.4732 74.7621 10.3599 79.4455 10.3599C81.6796 10.3599 83.4533 11.3523 84.3781 12.4545H84.5217V10.93H88.4281V10.9258ZM84.8131 19.7605C84.8131 16.4622 82.6129 14.0509 79.8129 14.0509C76.975 14.0509 74.5974 16.4622 74.5974 19.7605C74.5974 23.025 76.975 25.4026 79.8129 25.4026C82.6129 25.4026 84.8131 23.025 84.8131 19.7605Z" fill="white"/>
  <path d="M94.8683 1.06885V28.519H90.8563V1.06885H94.8683Z" fill="white"/>
  <path d="M110.502 22.8094L113.695 24.9378C112.664 26.4624 110.181 29.0892 105.891 29.0892C100.569 29.0892 96.5955 24.9759 96.5955 19.7223C96.5955 14.152 100.603 10.3555 105.43 10.3555C110.291 10.3555 112.669 14.2238 113.446 16.3143L113.872 17.3785L101.351 22.5645C102.309 24.4437 103.8 25.4024 105.891 25.4024C107.985 25.4024 109.438 24.372 110.502 22.8094ZM100.675 19.4394L109.045 15.9638C108.585 14.794 107.2 13.9789 105.57 13.9789C103.479 13.9789 100.569 15.8244 100.675 19.4394Z" fill="white"/>
  <path d="M14.7513 17.2894V13.3154H28.1428C28.2737 14.008 28.3413 14.8273 28.3413 15.7142C28.3413 18.6957 27.5262 22.3825 24.8994 25.0092C22.3444 27.6698 19.08 29.0887 14.7555 29.0887C6.74007 29.0887 0 22.5598 0 14.5444C0 6.52892 6.74007 0 14.7555 0C19.1898 0 22.3487 1.73992 24.7221 4.00773L21.9179 6.81187C20.216 5.21553 17.9102 3.97394 14.7513 3.97394C8.89808 3.97394 4.32024 8.69115 4.32024 14.5444C4.32024 20.3976 8.89808 25.1148 14.7513 25.1148C18.5479 25.1148 20.7101 23.5903 22.0953 22.2051C23.2186 21.0817 23.9577 19.477 24.2491 17.2852L14.7513 17.2894Z" fill="white"/>
</svg>