<svg xmlns="http://www.w3.org/2000/svg" width="71" height="71" viewBox="0 0 71 71" fill="none">
  <circle cx="35.5135" cy="35.7085" r="35" fill="#F1F5FE"/>
  <path d="M35.6188 41.5063C35.6188 41.6713 35.7463 41.8063 35.9 41.8063H42.8375C42.9913 41.8063 43.1188 41.6713 43.1188 41.5063V39.7063C43.1188 39.5413 42.9913 39.4062 42.8375 39.4062H35.9C35.7463 39.4062 35.6188 39.5413 35.6188 39.7063V41.5063ZM28.31 41.735L35.51 35.6975C35.6525 35.5775 35.6525 35.3562 35.51 35.2362L28.31 29.2025C28.2665 29.1655 28.2134 29.1418 28.1568 29.1342C28.1003 29.1265 28.0427 29.1353 27.991 29.1594C27.9393 29.1834 27.8956 29.2219 27.865 29.2701C27.8345 29.3182 27.8184 29.3742 27.8188 29.4313V31.7825C27.8188 31.8725 27.8563 31.955 27.9275 32.0112L32.045 35.4688L27.9275 38.9263C27.894 38.9543 27.8669 38.9893 27.8481 39.0287C27.8294 39.0682 27.8193 39.1113 27.8188 39.155V41.5063C27.8188 41.7613 28.115 41.9 28.31 41.735ZM49.2688 20.4688H21.6688C21.005 20.4688 20.4688 21.005 20.4688 21.6688V49.2688C20.4688 49.9325 21.005 50.4688 21.6688 50.4688H49.2688C49.9325 50.4688 50.4688 49.9325 50.4688 49.2688V21.6688C50.4688 21.005 49.9325 20.4688 49.2688 20.4688ZM47.7688 47.7688H23.1688V23.1688H47.7688V47.7688Z" fill="#0061FE"/>
</svg>