<svg width="780" height="799" viewBox="0 0 780 799" fill="none" xmlns="http://www.w3.org/2000/svg">
<rect opacity="0.06" x="208.13" y="-32" width="912.156" height="830.133" rx="415.067" fill="#0061FE"/>
<path d="M761.887 431.165C757.956 408.979 749.709 386.516 733.937 369.994C718.602 353.933 696.05 346.738 674.646 343.458C660.441 341.28 644.595 339.02 630.322 339.507C612.768 340.109 596.029 342.669 578.289 341.38C542.502 338.778 507.613 329.61 472.883 321.113C410.404 305.83 350.316 298.189 287.904 319.978C196.258 351.974 136.539 431.128 108.333 521.492C101.955 541.923 97.1119 562.824 93.6312 583.934C115.231 583.934 136.826 583.934 158.425 583.934C210.29 583.934 262.15 583.934 314.014 583.934C376.826 583.934 439.634 583.934 502.447 583.934C556.885 583.934 611.328 583.934 665.767 583.934C692.829 583.934 719.891 583.979 746.953 583.911C745.29 576.985 747.181 569.763 748.949 562.865C759.801 520.553 769.637 474.857 761.887 431.165Z" fill="url(#paint0_radial_59_233)"/>
<path d="M0 568H874.735V702.416H0V568Z" fill="url(#paint1_radial_59_233)"/>
<path d="M344.438 568.442H179.515" stroke="#0061FE" stroke-width="0.489583" stroke-miterlimit="10"/>
<path d="M407.765 561.152H242.841" stroke="#0061FE" stroke-width="0.489583" stroke-miterlimit="10"/>
<path d="M593.874 590.768H688.182" stroke="#0061FE" stroke-width="0.489583" stroke-miterlimit="10"/>
<path d="M392.275 365.907C392.275 365.907 395.465 390.968 386.808 392.79C378.152 394.613 362.662 395.069 362.662 395.069L358.562 414.206L372.229 444.734L392.731 454.302L419.155 443.823L448.313 410.105L453.78 387.778C453.78 387.778 438.746 392.335 434.19 388.234C429.634 384.133 426.896 361.975 434.19 342.528C441.484 323.081 423.711 332.189 423.711 332.189L388.631 361.351L392.275 365.907Z" fill="#FFDE99"/>
<path d="M392.275 365.907C392.275 365.907 395.465 390.968 386.808 392.79C378.152 394.613 362.662 395.069 362.662 395.069L358.562 414.206L372.229 444.734L392.731 454.302L419.155 443.823L448.313 410.105L453.78 387.778C453.78 387.778 438.746 392.335 434.19 388.234C429.634 384.133 426.896 361.975 434.19 342.528C441.484 323.081 423.711 332.189 423.711 332.189L388.631 361.351L392.275 365.907Z" fill="url(#paint2_radial_59_233)"/>
<path d="M392.275 365.907C392.275 365.907 395.465 390.968 386.808 392.79C378.152 394.613 362.662 395.069 362.662 395.069L358.562 414.206L372.229 444.734L392.731 454.302L419.155 443.823L448.313 410.105L453.78 387.778C453.78 387.778 438.746 392.335 434.19 388.234C429.634 384.133 426.896 361.975 434.19 342.528C441.484 323.081 423.711 332.189 423.711 332.189L388.631 361.351L392.275 365.907Z" fill="url(#paint3_radial_59_233)"/>
<path d="M371.546 305.078C371.546 305.078 361.892 354.238 382.64 373.721C383.391 374.428 384.417 374.779 385.446 374.701C391.136 374.277 410.444 371.967 417.789 359.984C426.444 345.859 432.367 340.847 432.367 340.847C432.367 340.847 443.073 352.01 446.718 342.897C450.363 333.784 448.085 322.393 437.151 322.393L412.549 281.385L387.947 284.119L371.546 305.078Z" fill="#FFDE99"/>
<path d="M406.399 328.089L415.511 329.911L406.171 346.77L383.164 368.641C383.164 368.641 379.751 366.459 375.164 363.087C369.961 351.942 369.004 337.707 369.378 326.125C392.476 322.379 406.399 328.089 406.399 328.089Z" fill="url(#paint4_radial_59_233)"/>
<path d="M402.298 288.903C402.298 288.903 403.665 324.899 432.367 328.088C432.367 328.088 413.233 323.532 408.677 297.56C408.677 297.56 422.8 329.911 437.379 324.899C441.93 323.332 444.655 326.521 446.263 330.048C448.495 334.951 446.586 340.874 441.693 343.129C439.065 344.341 435.83 344.309 432.367 340.847C432.367 340.847 425.078 380.943 439.201 378.665C439.201 378.665 430.089 379.121 432.367 357.705C432.367 357.705 443.757 354.972 455.147 358.161C466.537 361.351 485.672 338.113 476.56 288.903L458.336 264.754C458.336 264.754 411.032 251.057 387.309 269.611C385.396 271.105 383.369 272.45 381.305 273.73C376.33 276.828 366.421 287.422 366.762 322.621C366.762 322.621 366.307 309.863 373.596 302.117C373.596 302.117 370.881 303.402 370.188 314.606C370.188 314.606 377.696 296.193 402.298 288.903Z" fill="#241921"/>
<path d="M467.903 262.475C468.359 261.564 469.27 232.858 500.706 238.782C507.726 240.103 513.203 242.404 517.471 245.179C532.324 254.83 532.597 270.221 532.597 270.221L510.729 243.794C510.729 243.794 482.938 231.036 476.559 254.274C476.559 254.274 494.71 229.632 522.328 247.927C529.923 252.957 535.75 260.238 539.272 268.64C544.944 282.173 556.57 305.94 566.771 301.661C566.771 301.661 558.912 315.153 544.903 317.153C528.957 319.431 504.847 313.818 492.332 287.436C491.015 284.661 488.815 282.374 486.036 281.066C483.749 279.99 481.07 279.585 478.842 281.613C473.83 286.169 467.908 264.298 467.908 264.298V262.475H467.903Z" fill="#241921"/>
<path d="M458.336 264.754C458.336 264.754 459.247 257.008 465.17 256.552C471.092 256.096 494.327 290.27 476.559 288.903C476.559 288.903 462.436 274.322 458.336 264.754Z" fill="#0061FE"/>
<path d="M458.336 264.754C458.336 264.754 459.247 257.008 465.17 256.552C471.092 256.096 494.327 290.27 476.559 288.903C476.559 288.903 462.436 274.322 458.336 264.754Z" fill="url(#paint5_radial_59_233)"/>
<path d="M479.02 276.71L473.694 280.993" stroke="#0144B9" stroke-width="0.489583" stroke-miterlimit="10"/>
<path d="M476.022 272.983L470.701 277.266" stroke="#0144B9" stroke-width="0.489583" stroke-miterlimit="10"/>
<path d="M469.174 264.462L463.848 268.745" stroke="#0144B9" stroke-width="0.489583" stroke-miterlimit="10"/>
<path d="M477.735 275.115L472.409 279.398" stroke="#0144B9" stroke-width="0.489583" stroke-miterlimit="10"/>
<path d="M472.883 269.078L467.557 273.361" stroke="#0144B9" stroke-width="0.489583" stroke-miterlimit="10"/>
<path d="M473.143 324.671C473.143 324.671 467.22 355.655 453.552 350.187" stroke="#0144B9" stroke-width="0.489583" stroke-miterlimit="10"/>
<path d="M402.07 283.663C402.07 283.663 386.125 284.574 373.824 300.522" stroke="#0144B9" stroke-width="0.489583" stroke-miterlimit="10"/>
<path d="M536.015 434.937C536.015 434.937 503.221 431.415 484.665 432.518C478.182 432.905 472.724 437.489 471.234 443.809C469.17 452.566 465.594 465.539 461.298 471.84C455.899 479.759 460.455 527.224 462.605 546.794H372.225C366.403 533.945 355.596 509.312 351.045 493.711C344.666 471.84 354.689 469.106 356.056 450.425C356.056 450.425 337.377 466.828 331.91 473.207C331.91 473.207 334.188 474.574 333.277 476.397C332.365 478.219 331.91 480.953 331.91 480.953C331.91 480.953 303.663 474.574 297.741 481.864L295.007 477.764L298.652 470.018L303.208 465.917C303.208 465.917 339.199 406.227 351.5 398.481C363.801 390.735 376.644 394.189 376.644 394.189C376.644 394.189 371.091 444.957 394.326 442.679C417.561 440.401 442.505 389.883 442.505 389.883C442.505 389.883 444.896 385.728 454.008 385.272C463.12 384.816 569.273 401.675 584.307 415.345C584.307 415.345 592.052 414.889 593.419 421.268C593.419 421.268 604.809 422.179 601.164 435.393L536.015 434.937Z" fill="#0061FE"/>
<path d="M297.741 481.869C297.741 481.869 304.119 518.776 312.319 531.079C312.319 531.079 318.698 525.155 327.81 525.611C327.81 525.611 325.14 495.98 329.664 480.493C329.664 480.493 305.486 474.579 297.741 481.869Z" fill="#FFDE99"/>
<path d="M297.741 481.869C297.741 481.869 304.119 518.776 312.319 531.079C312.319 531.079 318.698 525.155 327.81 525.611C327.81 525.611 325.14 495.98 329.664 480.493C329.664 480.493 305.486 474.579 297.741 481.869Z" fill="url(#paint6_radial_59_233)"/>
<path d="M327.882 523.98L339.882 516.726C339.882 516.726 349.45 538.597 349.45 545.432C349.45 545.432 346.716 549.077 341.249 536.319L339.882 541.331L333.048 542.242L331.226 540.419L330.315 542.698L328.037 543.153L323.937 541.331L322.114 543.153L317.103 542.698C317.103 542.698 312.091 537.686 312.091 530.851C312.091 524.016 327.882 523.98 327.882 523.98Z" fill="#FFDE99"/>
<path d="M336.693 526.75L341.249 536.319L339.882 541.331L333.048 542.242L331.226 540.42L330.315 542.698L328.037 543.153L323.937 541.331L322.114 543.153L317.103 542.698C317.103 542.698 312.091 537.686 312.091 530.851C324.848 524.016 336.693 526.75 336.693 526.75Z" fill="url(#paint7_radial_59_233)"/>
<path d="M465.151 464.163C464.974 464.614 464.791 465.056 464.609 465.488C464.573 465.57 464.541 465.648 464.504 465.73C464.322 466.163 464.135 466.587 463.944 466.997C463.917 467.06 463.885 467.12 463.857 467.183C463.657 467.616 463.456 468.036 463.256 468.446C463.128 468.701 463.001 468.947 462.873 469.193C462.491 469.922 462.094 470.61 461.698 471.239C461.566 471.448 461.434 471.653 461.297 471.849C461.219 471.959 461.151 472.082 461.078 472.205C461.065 472.232 461.046 472.259 461.033 472.291C460.964 472.419 460.896 472.551 460.832 472.688C460.823 472.71 460.814 472.733 460.805 472.751C460.746 472.884 460.686 473.016 460.632 473.157C460.618 473.184 460.609 473.216 460.595 473.244C460.536 473.398 460.477 473.563 460.418 473.736C460.404 473.772 460.395 473.809 460.381 473.845C460.327 474.004 460.276 474.173 460.226 474.346C460.222 474.364 460.213 474.387 460.208 474.405C460.153 474.592 460.103 474.788 460.053 474.989C460.04 475.034 460.03 475.084 460.017 475.13C459.967 475.335 459.916 475.545 459.871 475.759C459.866 475.777 459.862 475.795 459.862 475.813C459.816 476.018 459.775 476.233 459.734 476.447C459.725 476.497 459.716 476.547 459.707 476.593C459.666 476.82 459.625 477.057 459.584 477.294C459.575 477.34 459.57 477.385 459.561 477.431C459.525 477.65 459.493 477.873 459.461 478.101C459.456 478.146 459.447 478.187 459.443 478.233C459.406 478.488 459.374 478.748 459.342 479.012C459.333 479.071 459.329 479.13 459.32 479.19C459.288 479.449 459.26 479.714 459.233 479.983C459.233 480.001 459.229 480.014 459.229 480.033C459.201 480.315 459.174 480.602 459.147 480.894C459.142 480.962 459.133 481.026 459.128 481.094C459.106 481.381 459.078 481.678 459.055 481.974C459.051 482.019 459.051 482.065 459.046 482.106C459.028 482.379 459.01 482.653 458.992 482.931C458.987 482.999 458.983 483.063 458.978 483.131C458.96 483.441 458.942 483.751 458.923 484.065C458.919 484.133 458.919 484.202 458.914 484.27C458.901 484.562 458.887 484.853 458.873 485.154C458.873 485.2 458.869 485.25 458.869 485.295C458.855 485.623 458.841 485.961 458.832 486.298C458.828 486.375 458.828 486.453 458.823 486.535C458.814 486.876 458.805 487.223 458.796 487.578C458.796 487.592 458.796 487.61 458.796 487.624C458.787 487.965 458.782 488.307 458.778 488.658C458.778 488.74 458.773 488.822 458.773 488.909C458.768 489.26 458.764 489.615 458.759 489.975C458.759 490.039 458.759 490.107 458.759 490.171C458.759 490.494 458.755 490.818 458.755 491.141C458.755 491.214 458.755 491.287 458.755 491.365C458.755 491.734 458.755 492.103 458.759 492.476C458.759 492.558 458.759 492.64 458.759 492.722C458.759 493.073 458.764 493.424 458.768 493.78C458.768 493.821 458.768 493.866 458.768 493.907C458.773 494.29 458.778 494.682 458.787 495.069C458.787 495.16 458.791 495.251 458.791 495.342C458.8 495.73 458.805 496.122 458.814 496.518C458.814 496.568 458.819 496.618 458.819 496.664C458.828 497.024 458.837 497.388 458.846 497.757C458.85 497.848 458.85 497.935 458.855 498.026C458.864 498.423 458.878 498.819 458.891 499.22C458.896 499.297 458.896 499.379 458.901 499.457C458.914 499.817 458.923 500.177 458.937 500.537C458.942 500.61 458.942 500.683 458.946 500.755C458.96 501.156 458.978 501.562 458.992 501.967C458.996 502.068 459.001 502.168 459.005 502.268C459.024 502.669 459.037 503.07 459.055 503.476C459.055 503.494 459.055 503.517 459.06 503.535C459.078 503.95 459.096 504.369 459.119 504.788C459.124 504.888 459.128 504.988 459.133 505.093C459.151 505.508 459.174 505.927 459.197 506.342C459.201 506.401 459.201 506.456 459.206 506.515C459.224 506.898 459.247 507.28 459.265 507.663C459.27 507.754 459.274 507.845 459.279 507.936C459.301 508.347 459.324 508.761 459.347 509.176C459.352 509.271 459.361 509.372 459.365 509.467C459.388 509.855 459.411 510.237 459.434 510.625C459.438 510.675 459.438 510.73 459.443 510.78C459.47 511.203 459.493 511.627 459.52 512.051C459.525 512.151 459.534 512.256 459.538 512.356C459.566 512.785 459.593 513.217 459.62 513.646C459.62 513.659 459.62 513.673 459.625 513.687C459.652 514.11 459.68 514.534 459.711 514.958C459.716 515.045 459.725 515.136 459.73 515.222C459.757 515.646 459.789 516.07 459.821 516.493C459.825 516.571 459.83 516.644 459.839 516.721C459.866 517.104 459.894 517.482 459.921 517.865C459.926 517.942 459.93 518.015 459.939 518.093C459.971 518.512 460.003 518.931 460.035 519.346C460.044 519.442 460.049 519.533 460.058 519.628C460.09 520.052 460.122 520.476 460.158 520.895C460.158 520.9 460.158 520.9 460.158 520.904C460.19 521.332 460.226 521.756 460.258 522.18C460.267 522.276 460.272 522.376 460.281 522.472C460.313 522.891 460.349 523.31 460.381 523.725C460.386 523.761 460.386 523.797 460.39 523.834C460.422 524.235 460.459 524.631 460.491 525.028C460.495 525.101 460.504 525.174 460.509 525.242C460.545 525.657 460.577 526.067 460.614 526.477C460.618 526.554 460.627 526.632 460.632 526.705C460.664 527.087 460.7 527.47 460.732 527.853C460.737 527.889 460.737 527.926 460.741 527.967C460.778 528.386 460.814 528.8 460.85 529.215C460.855 529.283 460.864 529.347 460.869 529.416C460.942 530.249 461.019 531.07 461.092 531.881C461.096 531.94 461.101 531.999 461.11 532.054C461.147 532.45 461.183 532.847 461.219 533.238C461.224 533.289 461.229 533.339 461.233 533.389C461.27 533.767 461.306 534.136 461.338 534.51C461.343 534.542 461.342 534.569 461.347 534.601C461.383 534.993 461.424 535.38 461.461 535.763C461.465 535.822 461.475 535.881 461.479 535.945C461.516 536.319 461.552 536.688 461.589 537.052C461.589 537.061 461.589 537.066 461.589 537.075C461.625 537.453 461.661 537.827 461.702 538.2C461.707 538.255 461.712 538.31 461.721 538.364C461.794 539.107 461.871 539.836 461.944 540.547C461.948 540.583 461.953 540.62 461.953 540.652C461.989 541.007 462.026 541.363 462.062 541.709C462.062 541.727 462.067 541.745 462.067 541.768C462.103 542.119 462.14 542.465 462.176 542.807C462.176 542.812 462.176 542.816 462.176 542.825C462.213 543.158 462.245 543.486 462.281 543.809C462.286 543.86 462.29 543.905 462.295 543.955C462.363 544.593 462.431 545.213 462.495 545.81C462.5 545.842 462.5 545.874 462.504 545.901C462.536 546.206 462.568 546.507 462.604 546.798H372.224C372.202 546.748 372.179 546.698 372.156 546.648C372.024 546.356 371.887 546.056 371.751 545.755C371.705 545.65 371.655 545.545 371.605 545.436C371.445 545.081 371.281 544.716 371.113 544.347C371.063 544.233 371.012 544.119 370.958 544.005C370.835 543.727 370.707 543.445 370.58 543.158C370.511 543.008 370.443 542.853 370.375 542.698C370.215 542.342 370.051 541.978 369.887 541.613C369.81 541.44 369.732 541.267 369.655 541.089C369.545 540.843 369.436 540.597 369.327 540.351C369.231 540.141 369.14 539.927 369.044 539.713C368.926 539.444 368.807 539.176 368.689 538.907C368.557 538.601 368.42 538.296 368.283 537.991C368.183 537.763 368.083 537.535 367.983 537.303C367.873 537.057 367.764 536.806 367.655 536.556C367.568 536.355 367.477 536.155 367.391 535.954C367.208 535.535 367.022 535.107 366.835 534.678C366.744 534.473 366.657 534.268 366.566 534.063C366.452 533.794 366.334 533.53 366.215 533.261C366.133 533.07 366.047 532.874 365.965 532.683C365.755 532.2 365.545 531.712 365.336 531.22C365.263 531.047 365.185 530.874 365.113 530.701C364.985 530.4 364.853 530.099 364.725 529.794C364.657 529.634 364.589 529.479 364.52 529.32C364.288 528.773 364.056 528.226 363.819 527.675C363.75 527.52 363.687 527.365 363.618 527.206C363.482 526.887 363.345 526.563 363.213 526.24C363.149 526.094 363.09 525.944 363.026 525.798C362.785 525.219 362.538 524.64 362.297 524.057C362.233 523.907 362.174 523.761 362.11 523.611C361.974 523.283 361.837 522.955 361.7 522.626C361.636 522.472 361.573 522.317 361.509 522.166C361.267 521.578 361.026 520.991 360.784 520.403C360.725 520.257 360.666 520.111 360.607 519.965C360.47 519.633 360.333 519.3 360.201 518.963C360.138 518.813 360.078 518.658 360.014 518.507C359.778 517.924 359.541 517.336 359.308 516.753C359.245 516.598 359.181 516.439 359.122 516.284C358.989 515.956 358.857 515.628 358.73 515.3C358.666 515.136 358.602 514.976 358.538 514.812C358.315 514.243 358.087 513.673 357.869 513.108C357.805 512.944 357.741 512.78 357.673 512.611C357.55 512.297 357.427 511.978 357.304 511.664C357.235 511.481 357.163 511.304 357.094 511.121C356.889 510.584 356.684 510.051 356.479 509.518C356.411 509.34 356.342 509.158 356.274 508.98C356.16 508.675 356.046 508.374 355.932 508.073C355.86 507.882 355.787 507.686 355.718 507.494C355.536 507.011 355.358 506.533 355.185 506.055C355.108 505.84 355.026 505.626 354.948 505.412C354.844 505.13 354.743 504.852 354.643 504.574C354.566 504.364 354.493 504.155 354.42 503.95C354.265 503.521 354.115 503.102 353.969 502.678C353.882 502.437 353.796 502.195 353.714 501.954C353.623 501.694 353.531 501.434 353.445 501.175C353.372 500.961 353.295 500.742 353.222 500.528C353.103 500.177 352.985 499.826 352.866 499.48C352.771 499.197 352.675 498.915 352.584 498.632C352.506 498.395 352.429 498.158 352.351 497.921C352.279 497.694 352.206 497.47 352.133 497.247C352.06 497.024 351.992 496.8 351.919 496.582C353.153 497.283 354.297 497.753 358.11 498.063C374.967 499.43 374.967 492.139 397.291 496.696C419.615 501.252 439.661 500.796 443.306 474.369C446.855 448.639 460.163 424.704 487.954 422.881C515.745 421.058 542.501 429.547 542.501 429.547L538.278 434.969L536.023 434.956C536.023 434.956 536.009 434.956 535.991 434.951C535.982 434.951 535.973 434.951 535.959 434.947C535.946 434.947 535.932 434.942 535.914 434.942C535.895 434.942 535.877 434.937 535.859 434.937C535.832 434.933 535.795 434.933 535.759 434.928C535.731 434.924 535.704 434.924 535.672 434.919C535.645 434.915 535.613 434.915 535.581 434.91C535.535 434.905 535.494 434.901 535.449 434.896C535.371 434.887 535.285 434.878 535.194 434.869C535.166 434.864 535.135 434.864 535.103 434.86C535.021 434.851 534.934 434.842 534.843 434.833C534.816 434.828 534.784 434.828 534.752 434.823C534.656 434.814 534.561 434.805 534.456 434.792C534.415 434.787 534.374 434.782 534.328 434.778C534.232 434.769 534.137 434.76 534.032 434.751C533.973 434.746 533.914 434.737 533.85 434.732C533.722 434.719 533.59 434.705 533.449 434.691C533.417 434.687 533.394 434.687 533.362 434.682C533.189 434.664 533.012 434.646 532.825 434.632C532.77 434.628 532.711 434.623 532.652 434.614C532.515 434.6 532.374 434.587 532.232 434.573C532.164 434.568 532.091 434.559 532.018 434.555C531.863 434.541 531.704 434.523 531.545 434.509C531.494 434.505 531.44 434.5 531.39 434.495C531.207 434.477 531.016 434.459 530.82 434.441C530.77 434.436 530.72 434.432 530.67 434.427C530.428 434.404 530.178 434.381 529.923 434.359C529.918 434.359 529.909 434.359 529.904 434.359C529.672 434.336 529.431 434.318 529.189 434.295C529.098 434.286 529.002 434.277 528.907 434.268C528.724 434.249 528.538 434.236 528.346 434.217C528.26 434.208 528.178 434.204 528.091 434.195C527.891 434.176 527.686 434.158 527.476 434.14C527.394 434.131 527.312 434.126 527.23 434.117C526.975 434.094 526.715 434.072 526.446 434.049C526.41 434.044 526.374 434.044 526.337 434.04C526.036 434.012 525.731 433.99 525.421 433.962C525.339 433.953 525.257 433.949 525.175 433.94C524.943 433.921 524.711 433.899 524.469 433.88C524.364 433.871 524.26 433.862 524.159 433.853C523.932 433.835 523.699 433.817 523.467 433.798C523.367 433.789 523.266 433.78 523.166 433.775C522.92 433.757 522.674 433.734 522.424 433.716C522.328 433.707 522.232 433.703 522.137 433.693C521.453 433.639 520.756 433.584 520.041 433.534C519.941 433.525 519.845 433.52 519.745 433.511C519.49 433.493 519.239 433.475 518.979 433.457C518.852 433.447 518.72 433.438 518.588 433.429C518.341 433.411 518.095 433.393 517.845 433.375C517.722 433.365 517.599 433.356 517.476 433.347C517.184 433.324 516.888 433.306 516.592 433.283C516.515 433.279 516.437 433.274 516.36 433.265C515.982 433.238 515.603 433.215 515.221 433.188C515.143 433.183 515.066 433.179 514.988 433.174C514.683 433.156 514.373 433.133 514.063 433.115C513.945 433.106 513.827 433.101 513.713 433.092C513.444 433.074 513.171 433.056 512.902 433.042C512.765 433.033 512.633 433.024 512.496 433.015C512.223 432.996 511.95 432.983 511.672 432.964C511.553 432.955 511.43 432.951 511.312 432.942C506.728 432.673 501.936 432.459 497.343 432.368C496.992 432.358 496.646 432.354 496.295 432.349C496.286 432.349 496.277 432.349 496.273 432.349C495.817 432.34 495.366 432.336 494.915 432.331C494.806 432.331 494.692 432.331 494.582 432.327C493.667 432.317 492.76 432.317 491.872 432.322C491.762 432.322 491.658 432.322 491.548 432.322C490.664 432.327 489.794 432.34 488.942 432.363C488.837 432.368 488.733 432.368 488.628 432.372C487.78 432.395 486.956 432.422 486.154 432.459C486.054 432.463 485.954 432.468 485.858 432.472C485.457 432.491 485.061 432.513 484.673 432.536C483.051 432.632 481.498 432.992 480.049 433.575C479.716 433.707 479.388 433.858 479.07 434.017C479.029 434.04 478.983 434.058 478.942 434.076C478.637 434.227 478.341 434.391 478.049 434.564C477.999 434.596 477.944 434.628 477.894 434.655C477.607 434.828 477.329 435.015 477.056 435.206C477.01 435.238 476.965 435.27 476.919 435.306C476.641 435.507 476.368 435.717 476.104 435.94C476.081 435.958 476.058 435.981 476.035 435.999C475.776 436.222 475.52 436.45 475.274 436.692C475.252 436.714 475.233 436.733 475.211 436.751C474.965 436.992 474.732 437.243 474.505 437.503C474.468 437.544 474.432 437.585 474.395 437.63C474.176 437.885 473.967 438.145 473.766 438.419C473.73 438.469 473.694 438.514 473.657 438.564C473.457 438.838 473.265 439.12 473.083 439.412C473.06 439.453 473.033 439.494 473.01 439.53C472.823 439.836 472.641 440.15 472.477 440.469C472.318 440.783 472.167 441.107 472.031 441.435C471.99 441.531 471.953 441.631 471.912 441.727C471.812 441.973 471.721 442.219 471.639 442.474C471.602 442.574 471.571 442.674 471.539 442.779C471.429 443.125 471.329 443.472 471.247 443.827C471.16 444.192 471.074 444.565 470.983 444.939C470.96 445.035 470.937 445.13 470.914 445.226C470.823 445.604 470.732 445.987 470.632 446.374C470.627 446.388 470.627 446.401 470.623 446.411C470.527 446.798 470.427 447.19 470.327 447.586C470.299 447.686 470.277 447.787 470.249 447.887C470.04 448.698 469.826 449.532 469.598 450.375C469.57 450.479 469.539 450.589 469.511 450.694C469.283 451.541 469.047 452.398 468.796 453.259C468.764 453.364 468.737 453.473 468.705 453.578C468.582 454.011 468.454 454.448 468.322 454.881C468.131 455.528 467.93 456.18 467.73 456.827C467.529 457.474 467.32 458.121 467.11 458.759C466.901 459.396 466.682 460.034 466.463 460.663V460.668C466.245 461.297 466.021 461.916 465.794 462.527C465.611 463.014 465.425 463.493 465.238 463.967C465.206 464.026 465.179 464.094 465.151 464.163Z" fill="url(#paint8_radial_59_233)"/>
<path d="M528.911 583.947H658.837C661.707 583.947 664.035 581.619 664.035 578.748V446.556H523.713V578.748C523.713 581.619 526.041 583.947 528.911 583.947Z" fill="#FB8F8F"/>
<path d="M464.446 446.771H523.713V578.744C523.713 581.614 526.042 583.943 528.912 583.943H595.847C595.378 584.079 594.886 584.157 594.371 584.157H464.446C461.575 584.157 459.247 581.829 459.247 578.958V451.969C459.247 449.099 461.575 446.771 464.446 446.771Z" fill="#EECFF8"/>
<path d="M461.233 458.572C461.233 458.572 452.869 466.149 450.591 470.25C448.313 474.351 448.313 479.363 446.49 486.198C446.49 486.198 452.869 485.286 456.513 472.528C460.158 459.77 461.233 458.572 461.233 458.572Z" fill="url(#paint9_radial_59_233)"/>
<path opacity="0.57" d="M535.331 457.036L523.713 458.572V452.134L533.508 452.935L535.331 457.036Z" fill="url(#paint10_radial_59_233)"/>
<path d="M547.632 475.718H687.954L663.808 446.556H523.486L547.632 475.718Z" fill="#F9C1DA"/>
<path d="M372.43 547.254C366.995 535.28 356.913 512.379 351.915 496.564C353.149 497.265 354.293 497.735 358.106 498.045C374.963 499.411 374.963 492.121 397.287 496.678C419.611 501.234 439.657 500.778 443.302 474.351C446.851 448.621 460.159 424.686 487.95 422.863C515.741 421.04 542.498 429.529 542.498 429.529L538.274 434.951L536.019 434.938C536.019 434.938 523.841 433.63 510.128 432.855C508.72 432.778 507.299 432.7 505.873 432.637C505.157 432.605 504.442 432.573 503.731 432.545C501.59 432.459 499.449 432.39 497.349 432.349C496.998 432.34 496.651 432.336 496.301 432.331C492.132 432.267 488.15 432.313 484.674 432.518C483.052 432.614 481.498 432.974 480.05 433.557C476.797 434.869 474.095 437.311 472.482 440.455C471.945 441.503 471.526 442.629 471.248 443.814C470.473 447.099 469.489 450.976 468.332 454.872C468.141 455.519 467.94 456.171 467.74 456.818C467.539 457.465 467.33 458.112 467.12 458.75C466.91 459.392 466.692 460.025 466.473 460.654C466.254 461.283 466.031 461.903 465.803 462.513C465.006 464.65 464.159 466.664 463.275 468.441C462.769 469.457 462.25 470.396 461.717 471.234C461.585 471.444 461.452 471.649 461.316 471.845C459.434 474.602 458.765 482.152 458.774 491.647C458.755 509.463 461.206 534.387 462.619 547.254H372.43Z" fill="url(#paint11_radial_59_233)"/>
<path d="M491.138 447.468H521.663L523.713 452.024V458.859C523.713 458.859 499.795 459.315 490.227 469.794C480.66 480.274 474.737 528.573 459.247 524.928V473.248L491.138 447.468Z" fill="url(#paint12_radial_59_233)"/>
<path d="M537.153 462.96L523.486 446.556H598.658C598.658 446.556 608.681 463.871 537.153 462.96Z" fill="url(#paint13_radial_59_233)"/>
<path d="M593.309 427.173C597.063 427.684 600.166 430.472 600.908 434.186C601.578 437.548 601.232 442.182 597.746 447.923C590.316 460.167 527.517 451.432 493.466 457.547C490.81 458.025 488.446 459.533 486.874 461.73C482.901 467.275 475.243 478.557 472.915 486.198C469.725 496.678 466.081 511.714 463.803 517.637C463.803 517.637 462.208 518.321 461.753 513.309V493.716L458.108 506.018L456.285 517.865C456.285 517.865 454.008 517.865 452.185 512.853C452.185 512.853 450.363 514.22 449.452 508.297V501.006L446.718 494.627L450.363 473.667C450.363 473.667 464.24 452.225 470.286 447.682C476.331 443.139 513.234 437.671 541.025 429.925C562.26 424.007 584.156 425.934 593.309 427.173Z" fill="#FFDE99"/>
<path d="M483.338 466.828C483.338 466.828 483.334 466.828 483.338 466.828C478.322 460.996 473.944 454.234 471.762 446.825C480.883 442.451 514.961 437.193 541.025 429.925C562.26 424.007 584.156 425.934 593.309 427.173C597.063 427.684 600.166 430.472 600.908 434.186C601.578 437.548 601.232 442.182 597.746 447.923C590.698 459.533 533.841 452.275 498.947 456.713C492.888 457.483 487.439 460.786 484.004 465.839C483.785 466.163 483.562 466.491 483.338 466.828Z" fill="url(#paint14_radial_59_233)"/>
<path d="M456.286 517.865C456.286 517.865 454.008 517.865 452.186 512.853C452.186 512.853 450.363 514.22 449.452 508.297V501.006L446.718 494.627L450.067 475.736C450.067 475.736 460.614 483.008 466.537 481.186L461.525 493.488L461.407 494.882L458.108 506.018L456.286 517.865Z" fill="url(#paint15_radial_59_233)"/>
<path d="M319.381 470.25C334.415 467.972 356.284 435.165 356.284 435.165V450.202L356.033 450.694C356.042 450.607 356.047 450.521 356.056 450.429C356.056 450.429 337.377 466.833 331.91 473.212C331.91 473.212 334.188 474.579 333.276 476.401C332.365 478.224 331.91 480.958 331.91 480.958C331.91 480.958 330.074 480.543 327.24 480.046C327.222 478.857 326.638 477.29 324.392 475.718C319.836 472.528 301.157 475.718 301.157 475.718C301.157 475.718 304.346 472.528 319.381 470.25Z" fill="url(#paint16_radial_59_233)"/>
<path d="M473.371 392.334C473.371 392.334 448.769 386.411 444.668 395.524" stroke="#0061FE" stroke-width="0.489583" stroke-miterlimit="10"/>
<path d="M366.534 396.663C366.534 396.663 354.689 398.941 349.222 404.865" stroke="#0061FE" stroke-width="0.489583" stroke-miterlimit="10"/>
<path d="M397.259 485.432C397.259 485.432 409.802 492.317 420.777 485.61" stroke="#0061FE" stroke-width="0.489583" stroke-miterlimit="10"/>
<path d="M480.888 275.461C480.888 275.461 488.178 271.361 499.112 289.131C510.192 307.138 523.714 307.357 536.47 305.99" stroke="#0061FE" stroke-width="0.489583" stroke-miterlimit="10"/>
<path d="M145.177 363.401H160.316L155.523 348.264H140.384L145.177 363.401Z" stroke="#0061FE" stroke-width="0.489583" stroke-miterlimit="10"/>
<path d="M216.317 387.942C214.468 385.637 210.978 384.598 209.087 385.787C208.181 386.356 207.657 387.322 206.832 387.983C205.666 388.922 203.889 389.204 202.071 388.739C200.249 388.279 198.413 387.076 197.146 385.523" stroke="#FA404B" stroke-width="0.489583" stroke-miterlimit="10"/>
<path d="M135.153 317.381H150.293L145.5 302.244H130.361L135.153 317.381Z" fill="url(#paint17_radial_59_233)"/>
<path d="M141.241 336.6H156.375L151.582 321.459H136.448L141.241 336.6Z" fill="url(#paint18_radial_59_233)"/>
<path d="M147.322 355.814H162.457L157.664 340.673H142.529L147.322 355.814Z" fill="url(#paint19_radial_59_233)"/>
<path d="M144.334 309.762L142.735 313.763L133.136 305.762" stroke="white" stroke-width="0.489583" stroke-miterlimit="10"/>
<path d="M196.362 376.387H254.527C256.473 376.387 257.584 374.81 257.01 372.865L247.566 340.897C246.992 338.951 244.951 337.375 243.005 337.375H184.84C182.895 337.375 181.783 338.951 182.357 340.897L191.802 372.865C192.376 374.81 194.417 376.387 196.362 376.387Z" fill="#FB8F8F"/>
<path d="M182.494 365.907H243.279C245.224 365.907 246.336 364.33 245.762 362.385L235.857 328.849C235.283 326.904 233.242 325.327 231.297 325.327H170.512C168.567 325.327 167.455 326.904 168.029 328.849L177.934 362.385C178.508 364.33 180.549 365.907 182.494 365.907Z" stroke="#FB8F8F" stroke-width="0.489583" stroke-miterlimit="10"/>
<path d="M190.262 367.652H255.466L253.576 361.246H188.367L190.262 367.652Z" fill="url(#paint20_linear_59_233)"/>
<path d="M233.753 353.003H241.161C242.168 353.003 242.746 352.188 242.446 351.176L241.001 346.282C240.705 345.275 239.644 344.455 238.637 344.455H231.229C230.222 344.455 229.643 345.271 229.944 346.282L231.388 351.176C231.685 352.188 232.746 353.003 233.753 353.003Z" fill="url(#paint21_radial_59_233)"/>
<path d="M237.985 344.455L239.156 348.424L238.086 350.866L238.714 353.003" stroke="#F9C1DA" stroke-width="0.489583" stroke-miterlimit="10"/>
<path d="M238.085 350.866L235.352 348.424H230.577" stroke="#F9C1DA" stroke-width="0.489583" stroke-miterlimit="10"/>
<path d="M232.363 344.455L233.538 348.424" stroke="#F9C1DA" stroke-width="0.489583" stroke-miterlimit="10"/>
<path d="M196.362 376.387C194.417 376.387 192.376 374.81 191.802 372.865L182.357 340.897C181.783 338.951 182.895 337.375 184.84 337.375H195.223L224.326 376.387H196.362Z" fill="url(#paint22_radial_59_233)"/>
<path d="M170.658 442.911H299.508L268.997 348.137H140.147L170.658 442.911Z" fill="url(#paint23_radial_59_233)"/>
<path d="M168.808 408.966H278.605L275.416 400.308H165.619L168.808 408.966Z" stroke="white" stroke-width="0.489583" stroke-miterlimit="10"/>
<path d="M173.82 420.813H283.617L280.428 412.155H170.631L173.82 420.813Z" stroke="white" stroke-width="0.489583" stroke-miterlimit="10"/>
<path d="M177.92 432.659H287.718L284.528 424.002H174.731L177.92 432.659Z" stroke="white" stroke-width="0.489583" stroke-miterlimit="10"/>
<path d="M177.555 550.466H406.649C407.834 550.466 408.795 549.505 408.795 548.32V545.222C408.795 544.037 407.834 543.076 406.649 543.076H177.555C176.371 543.076 175.409 544.037 175.409 545.222V548.32C175.409 549.505 176.371 550.466 177.555 550.466Z" fill="#FB8F8F"/>
<path d="M177.556 550.466H314.279C315.463 550.466 316.424 549.505 316.424 548.32V545.222C316.424 544.037 315.463 543.076 314.279 543.076H177.551C176.367 543.076 175.405 544.037 175.405 545.222V548.32C175.41 549.505 176.371 550.466 177.556 550.466Z" fill="#F9C1DA"/>
<path d="M143.559 427.292H275.872C277.653 427.292 279.238 428.435 279.794 430.13L314.633 535.804C315.512 538.479 313.522 541.231 310.711 541.231H178.393C176.612 541.231 175.026 540.087 174.471 538.392L139.632 432.719C138.752 430.044 140.743 427.292 143.559 427.292Z" fill="#EECFF8"/>
<path d="M331.728 548.617H342.999C343.628 548.617 344.138 548.106 344.138 547.477V546.675C344.138 546.047 343.628 545.536 342.999 545.536H331.728C331.099 545.536 330.589 546.047 330.589 546.675V547.477C330.589 548.106 331.099 548.617 331.728 548.617Z" stroke="#0061FE" stroke-width="0.489583" stroke-miterlimit="10"/>
<path d="M184.244 548.926H195.515C196.144 548.926 196.654 548.416 196.654 547.787V546.985C196.654 546.357 196.144 545.846 195.515 545.846H184.244C183.615 545.846 183.105 546.357 183.105 546.985V547.787C183.105 548.416 183.615 548.926 184.244 548.926Z" stroke="#0061FE" stroke-width="0.489583" stroke-miterlimit="10"/>
<path d="M354.206 548.926H365.478C366.106 548.926 366.617 548.416 366.617 547.787V546.985C366.617 546.357 366.106 545.846 365.478 545.846H354.206C353.578 545.846 353.067 546.357 353.067 546.985V547.787C353.067 548.416 353.578 548.926 354.206 548.926Z" stroke="#0061FE" stroke-width="0.489583" stroke-miterlimit="10"/>
<path d="M323.413 548.926H324.215C324.844 548.926 325.354 548.416 325.354 547.787V546.985C325.354 546.357 324.844 545.846 324.215 545.846H323.413C322.784 545.846 322.274 546.357 322.274 546.985V547.787C322.274 548.416 322.784 548.926 323.413 548.926Z" stroke="#0061FE" stroke-width="0.489583" stroke-miterlimit="10"/>
<path d="M141.131 428.085C141.805 427.592 142.634 427.292 143.559 427.292H275.872C277.653 427.292 279.239 428.435 279.795 430.13L314.224 534.56L141.131 428.085Z" fill="url(#paint24_linear_59_233)"/>
<path d="M163.364 435.361L205.242 461.228" stroke="white" stroke-width="0.489583" stroke-miterlimit="10"/>
<path d="M658.34 500.942H776.616V583.619H658.34V500.942Z" fill="#DEF4FF"/>
<path d="M602.758 485.587H701.321V584.162H602.758V485.587Z" fill="#FFDE99"/>
<path d="M634.495 485.587H733.057V584.162H634.495V485.587Z" fill="#F1D23C"/>
<path d="M693.854 485.587H710.656V515.459H693.854V485.587Z" fill="#FB8F8F"/>
<path d="M438.29 529.94H527.586V592.363H438.29V529.94Z" fill="#F2F6FF"/>
<path d="M482.938 529.94H572.234V592.363H482.938V529.94Z" fill="url(#paint25_radial_59_233)"/>
<path d="M807.774 500.942L792.512 520.654L776.617 500.942" stroke="white" stroke-width="0.489583" stroke-miterlimit="10"/>
<path d="M807.455 583.934L792.193 565.489L776.935 583.934" stroke="white" stroke-width="0.489583" stroke-miterlimit="10"/>
<path d="M718 592.546V548.029" stroke="white" stroke-width="0.489583" stroke-miterlimit="10"/>
<path d="M482.938 529.94L459.247 548.617L438.29 529.94" stroke="#0061FE" stroke-width="0.489583" stroke-miterlimit="10"/>
<path d="M483.166 592.591L459.475 578.922L438.518 592.591" stroke="#0061FE" stroke-width="0.489583" stroke-miterlimit="10"/>
<path d="M459.475 548.393V578.922" stroke="#0061FE" stroke-width="0.489583" stroke-miterlimit="10"/>
<path d="M716.05 339.461C718.319 342.455 718.228 347.007 715.836 349.905C713.075 353.249 708.064 354.138 705.458 357.601C703.471 360.239 703.385 364.153 705.253 366.878" stroke="#0061FE" stroke-width="0.489583" stroke-miterlimit="10"/>
<path d="M287.49 278.651C285.603 278.651 284.073 277.121 284.073 275.234C284.073 273.346 285.603 271.816 287.49 271.816C289.376 271.816 290.906 273.346 290.906 275.234C290.906 277.121 289.376 278.651 287.49 278.651Z" stroke="#0061FE" stroke-width="0.489583" stroke-miterlimit="10"/>
<path d="M596.378 371.997L600.778 373.181L599.594 377.581L595.194 376.397L596.378 371.997Z" stroke="#FA404B" stroke-width="0.489583" stroke-miterlimit="10"/>
<path d="M107.089 397.517L111.49 398.702L110.306 403.101L105.905 401.917L107.089 397.517Z" stroke="#0061FE" stroke-width="0.489583" stroke-miterlimit="10"/>
<path d="M248.992 605.349C248.992 605.349 232.591 587.123 208.9 597.147" stroke="#FA404B" stroke-width="0.489583" stroke-miterlimit="10"/>
<path d="M673.602 266.804L680.892 277.739" stroke="#FA404B" stroke-width="0.489583" stroke-miterlimit="10"/>
<path d="M717.34 605.349L710.506 610.361" stroke="#FA404B" stroke-width="0.489583" stroke-miterlimit="10"/>
<path d="M170.312 494.089C169.186 499.416 164.398 503.754 158.99 504.355C157.004 504.574 154.99 504.341 153.004 504.569C149.341 504.993 145.906 507.084 143.846 510.142" stroke="#0061FE" stroke-width="0.489583" stroke-miterlimit="10"/>
<path d="M733 501.978H764V583.978H733V501.978Z" fill="url(#paint26_radial_59_233)"/>
<defs>
<radialGradient id="paint0_radial_59_233" cx="0" cy="0" r="1" gradientUnits="userSpaceOnUse" gradientTransform="translate(567.349 255.945) rotate(166.183) scale(454.873 277.463)">
<stop stop-color="#EECFF8"/>
<stop offset="0.9011" stop-color="white" stop-opacity="0"/>
</radialGradient>
<radialGradient id="paint1_radial_59_233" cx="0" cy="0" r="1" gradientUnits="userSpaceOnUse" gradientTransform="translate(442.892 529.849) rotate(180) scale(310.562 159.524)">
<stop offset="0.3362" stop-color="#DEF4FF"/>
<stop offset="0.5609" stop-color="#E4F6FF" stop-opacity="0.6615"/>
<stop offset="0.8543" stop-color="#F4FBFF" stop-opacity="0.2196"/>
<stop offset="1" stop-color="white" stop-opacity="0"/>
</radialGradient>
<radialGradient id="paint2_radial_59_233" cx="0" cy="0" r="1" gradientUnits="userSpaceOnUse" gradientTransform="translate(389.747 370.536) rotate(180) scale(48.6416 48.6475)">
<stop stop-color="#FA404B"/>
<stop offset="0.025" stop-color="#FA484F" stop-opacity="0.975"/>
<stop offset="0.1916" stop-color="#FC7565" stop-opacity="0.8084"/>
<stop offset="0.3589" stop-color="#FD9B78" stop-opacity="0.6411"/>
<stop offset="0.5244" stop-color="#FEB886" stop-opacity="0.4756"/>
<stop offset="0.6876" stop-color="#FECD91" stop-opacity="0.3124"/>
<stop offset="0.8474" stop-color="#FFDA97" stop-opacity="0.1526"/>
<stop offset="1" stop-color="#FFDE99" stop-opacity="0"/>
</radialGradient>
<radialGradient id="paint3_radial_59_233" cx="0" cy="0" r="1" gradientUnits="userSpaceOnUse" gradientTransform="translate(455.353 379.514) rotate(180) scale(80.5731 80.5828)">
<stop stop-color="#FA404B"/>
<stop offset="0.025" stop-color="#FA484F" stop-opacity="0.975"/>
<stop offset="0.1916" stop-color="#FC7565" stop-opacity="0.8084"/>
<stop offset="0.3589" stop-color="#FD9B78" stop-opacity="0.6411"/>
<stop offset="0.5244" stop-color="#FEB886" stop-opacity="0.4756"/>
<stop offset="0.6876" stop-color="#FECD91" stop-opacity="0.3124"/>
<stop offset="0.8474" stop-color="#FFDA97" stop-opacity="0.1526"/>
<stop offset="1" stop-color="#FFDE99" stop-opacity="0"/>
</radialGradient>
<radialGradient id="paint4_radial_59_233" cx="0" cy="0" r="1" gradientUnits="userSpaceOnUse" gradientTransform="translate(386.294 316.318) rotate(180) scale(45.8716 45.8772)">
<stop stop-color="#FA404B"/>
<stop offset="0.025" stop-color="#FA484F" stop-opacity="0.975"/>
<stop offset="0.1916" stop-color="#FC7565" stop-opacity="0.8084"/>
<stop offset="0.3589" stop-color="#FD9B78" stop-opacity="0.6411"/>
<stop offset="0.5244" stop-color="#FEB886" stop-opacity="0.4756"/>
<stop offset="0.6876" stop-color="#FECD91" stop-opacity="0.3124"/>
<stop offset="0.8474" stop-color="#FFDA97" stop-opacity="0.1526"/>
<stop offset="1" stop-color="#FFDE99" stop-opacity="0"/>
</radialGradient>
<radialGradient id="paint5_radial_59_233" cx="0" cy="0" r="1" gradientUnits="userSpaceOnUse" gradientTransform="translate(486.75 313.023) rotate(180) scale(69.2193 69.2277)">
<stop offset="0.0936" stop-color="#241921"/>
<stop offset="1" stop-color="#0144B9" stop-opacity="0"/>
</radialGradient>
<radialGradient id="paint6_radial_59_233" cx="0" cy="0" r="1" gradientUnits="userSpaceOnUse" gradientTransform="translate(311.827 467.314) rotate(180) scale(70.9377 70.9464)">
<stop stop-color="#FA404B"/>
<stop offset="0.025" stop-color="#FA484F" stop-opacity="0.975"/>
<stop offset="0.1916" stop-color="#FC7565" stop-opacity="0.8084"/>
<stop offset="0.3589" stop-color="#FD9B78" stop-opacity="0.6411"/>
<stop offset="0.5244" stop-color="#FEB886" stop-opacity="0.4756"/>
<stop offset="0.6876" stop-color="#FECD91" stop-opacity="0.3124"/>
<stop offset="0.8474" stop-color="#FFDA97" stop-opacity="0.1526"/>
<stop offset="1" stop-color="#FFDE99" stop-opacity="0"/>
</radialGradient>
<radialGradient id="paint7_radial_59_233" cx="0" cy="0" r="1" gradientUnits="userSpaceOnUse" gradientTransform="translate(338.415 522.712) rotate(180) scale(25.6317 25.6348)">
<stop stop-color="#FA404B"/>
<stop offset="0.025" stop-color="#FA484F" stop-opacity="0.975"/>
<stop offset="0.1916" stop-color="#FC7565" stop-opacity="0.8084"/>
<stop offset="0.3589" stop-color="#FD9B78" stop-opacity="0.6411"/>
<stop offset="0.5244" stop-color="#FEB886" stop-opacity="0.4756"/>
<stop offset="0.6876" stop-color="#FECD91" stop-opacity="0.3124"/>
<stop offset="0.8474" stop-color="#FFDA97" stop-opacity="0.1526"/>
<stop offset="1" stop-color="#FFDE99" stop-opacity="0"/>
</radialGradient>
<radialGradient id="paint8_radial_59_233" cx="0" cy="0" r="1" gradientUnits="userSpaceOnUse" gradientTransform="translate(503.118 474.525) rotate(180) scale(83.7567 83.7669)">
<stop offset="0.0936" stop-color="#241921"/>
<stop offset="1" stop-color="#0144B9" stop-opacity="0"/>
</radialGradient>
<radialGradient id="paint9_radial_59_233" cx="0" cy="0" r="1" gradientUnits="userSpaceOnUse" gradientTransform="translate(471.323 467.032) rotate(180) scale(32.1587 32.1626)">
<stop stop-color="#FA404B"/>
<stop offset="0.025" stop-color="#FA484F"/>
<stop offset="0.1916" stop-color="#FC7565"/>
<stop offset="0.3589" stop-color="#FD9B78"/>
<stop offset="0.5244" stop-color="#FEB886"/>
<stop offset="0.6876" stop-color="#FECD91"/>
<stop offset="0.8474" stop-color="#FFDA97"/>
<stop offset="1" stop-color="#FFDE99"/>
</radialGradient>
<radialGradient id="paint10_radial_59_233" cx="0" cy="0" r="1" gradientUnits="userSpaceOnUse" gradientTransform="translate(547.349 436.249) rotate(180) scale(33.9197 33.9239)">
<stop offset="0.0936" stop-color="#241921"/>
<stop offset="1" stop-color="#0144B9" stop-opacity="0"/>
</radialGradient>
<radialGradient id="paint11_radial_59_233" cx="0" cy="0" r="1" gradientUnits="userSpaceOnUse" gradientTransform="translate(322.306 492.621) rotate(180) scale(87.5309 87.5414)">
<stop offset="0.0936" stop-color="#241921"/>
<stop offset="1" stop-color="#0144B9" stop-opacity="0"/>
</radialGradient>
<radialGradient id="paint12_radial_59_233" cx="0" cy="0" r="1" gradientUnits="userSpaceOnUse" gradientTransform="translate(487.598 440.163) rotate(180) scale(80.7594 80.7692)">
<stop stop-color="#FB8F8F"/>
<stop offset="1" stop-color="#F9C1DA" stop-opacity="0"/>
</radialGradient>
<radialGradient id="paint13_radial_59_233" cx="0" cy="0" r="1" gradientUnits="userSpaceOnUse" gradientTransform="translate(572.494 425.718) rotate(180) scale(64.9955 65.0034)">
<stop stop-color="#FB8F8F"/>
<stop offset="1" stop-color="#F9C1DA" stop-opacity="0"/>
</radialGradient>
<radialGradient id="paint14_radial_59_233" cx="0" cy="0" r="1" gradientUnits="userSpaceOnUse" gradientTransform="translate(643.19 466.02) rotate(180) scale(189.017 189.04)">
<stop stop-color="#FA404B"/>
<stop offset="0.025" stop-color="#FA484F" stop-opacity="0.975"/>
<stop offset="0.1916" stop-color="#FC7565" stop-opacity="0.8084"/>
<stop offset="0.3589" stop-color="#FD9B78" stop-opacity="0.6411"/>
<stop offset="0.5244" stop-color="#FEB886" stop-opacity="0.4756"/>
<stop offset="0.6876" stop-color="#FECD91" stop-opacity="0.3124"/>
<stop offset="0.8474" stop-color="#FFDA97" stop-opacity="0.1526"/>
<stop offset="1" stop-color="#FFDE99" stop-opacity="0"/>
</radialGradient>
<radialGradient id="paint15_radial_59_233" cx="0" cy="0" r="1" gradientUnits="userSpaceOnUse" gradientTransform="translate(458.706 469.875) rotate(180) scale(42.2099 42.215)">
<stop stop-color="#FA404B"/>
<stop offset="0.025" stop-color="#FA484F" stop-opacity="0.975"/>
<stop offset="0.1916" stop-color="#FC7565" stop-opacity="0.8084"/>
<stop offset="0.3589" stop-color="#FD9B78" stop-opacity="0.6411"/>
<stop offset="0.5244" stop-color="#FEB886" stop-opacity="0.4756"/>
<stop offset="0.6876" stop-color="#FECD91" stop-opacity="0.3124"/>
<stop offset="0.8474" stop-color="#FFDA97" stop-opacity="0.1526"/>
<stop offset="1" stop-color="#FFDE99" stop-opacity="0"/>
</radialGradient>
<radialGradient id="paint16_radial_59_233" cx="0" cy="0" r="1" gradientUnits="userSpaceOnUse" gradientTransform="translate(345.896 500.611) rotate(180) scale(75.6131 75.6222)">
<stop offset="0.0936" stop-color="#241921"/>
<stop offset="1" stop-color="#0144B9" stop-opacity="0"/>
</radialGradient>
<radialGradient id="paint17_radial_59_233" cx="0" cy="0" r="1" gradientUnits="userSpaceOnUse" gradientTransform="translate(149.691 295.469) rotate(180) scale(49.3628 49.3688)">
<stop stop-color="#0061FE"/>
<stop offset="1" stop-color="white"/>
</radialGradient>
<radialGradient id="paint18_radial_59_233" cx="0" cy="0" r="1" gradientUnits="userSpaceOnUse" gradientTransform="translate(166.494 306.98) rotate(180) scale(89.6079 89.6187)">
<stop stop-color="#0061FE"/>
<stop offset="1" stop-color="white"/>
</radialGradient>
<radialGradient id="paint19_radial_59_233" cx="0" cy="0" r="1" gradientUnits="userSpaceOnUse" gradientTransform="translate(164.193 313.887) rotate(180) scale(70.7452 70.7532)">
<stop stop-color="#0061FE"/>
<stop offset="1" stop-color="white"/>
</radialGradient>
<linearGradient id="paint20_linear_59_233" x1="254.519" y1="364.45" x2="194.544" y2="382.165" gradientUnits="userSpaceOnUse">
<stop offset="0.1791" stop-color="#F9C1DA"/>
<stop offset="1" stop-color="#EECFF8" stop-opacity="0"/>
</linearGradient>
<radialGradient id="paint21_radial_59_233" cx="0" cy="0" r="1" gradientUnits="userSpaceOnUse" gradientTransform="translate(233.58 333.873) rotate(180) scale(38.0626 46.2248)">
<stop stop-color="#0061FE"/>
<stop offset="1" stop-color="white"/>
</radialGradient>
<radialGradient id="paint22_radial_59_233" cx="0" cy="0" r="1" gradientUnits="userSpaceOnUse" gradientTransform="translate(189.332 309.216) rotate(180) scale(56.322 56.3288)">
<stop offset="0.1791" stop-color="#F9C1DA"/>
<stop offset="1" stop-color="#EECFF8" stop-opacity="0"/>
</radialGradient>
<radialGradient id="paint23_radial_59_233" cx="0" cy="0" r="1" gradientUnits="userSpaceOnUse" gradientTransform="translate(195.588 496.188) rotate(180) scale(300.711 300.747)">
<stop stop-color="#0061FE"/>
<stop offset="0.0281" stop-color="#106CFE" stop-opacity="0.9719"/>
<stop offset="0.1219" stop-color="#408BFE" stop-opacity="0.8781"/>
<stop offset="0.2211" stop-color="#6AA7FE" stop-opacity="0.7789"/>
<stop offset="0.3241" stop-color="#8EBFFF" stop-opacity="0.6759"/>
<stop offset="0.4318" stop-color="#ABD2FF" stop-opacity="0.5682"/>
<stop offset="0.546" stop-color="#C2E1FF" stop-opacity="0.454"/>
<stop offset="0.6696" stop-color="#D2ECFF" stop-opacity="0.3304"/>
<stop offset="0.8094" stop-color="#DBF2FF" stop-opacity="0.1906"/>
<stop offset="1" stop-color="#DEF4FF" stop-opacity="0"/>
</radialGradient>
<linearGradient id="paint24_linear_59_233" x1="314.228" y1="480.924" x2="141.131" y2="480.924" gradientUnits="userSpaceOnUse">
<stop offset="0.1791" stop-color="#F9C1DA"/>
<stop offset="1" stop-color="#EECFF8" stop-opacity="0"/>
</linearGradient>
<radialGradient id="paint25_radial_59_233" cx="0" cy="0" r="1" gradientUnits="userSpaceOnUse" gradientTransform="translate(602.969 443.362) rotate(180) scale(199.703 199.727)">
<stop stop-color="#0061FE"/>
<stop offset="1" stop-color="white"/>
</radialGradient>
<radialGradient id="paint26_radial_59_233" cx="0" cy="0" r="1" gradientUnits="userSpaceOnUse" gradientTransform="translate(691.958 435.142) rotate(180) scale(183.624 265.28)">
<stop stop-color="#0061FE"/>
<stop offset="1" stop-color="white"/>
</radialGradient>
</defs>
</svg>
