<svg width="165" height="37" viewBox="0 0 165 37" fill="none" xmlns="http://www.w3.org/2000/svg">
<path d="M70.6618 9.64956V26.4976H66.5578V16.3936L62.7898 26.4976H59.4778L55.6858 16.3696V26.4976H51.5818V9.64956H56.4297L61.1578 21.3136L65.8378 9.64956H70.6618ZM75.677 11.7136C74.957 11.7136 74.365 11.5056 73.901 11.0896C73.453 10.6576 73.229 10.1296 73.229 9.50556C73.229 8.86556 73.453 8.33756 73.901 7.92156C74.365 7.48956 74.957 7.27356 75.677 7.27356C76.381 7.27356 76.957 7.48956 77.405 7.92156C77.869 8.33756 78.101 8.86556 78.101 9.50556C78.101 10.1296 77.869 10.6576 77.405 11.0896C76.957 11.5056 76.381 11.7136 75.677 11.7136ZM77.717 13.1056V26.4976H73.613V13.1056H77.717ZM88.8511 12.9616C90.4191 12.9616 91.6671 13.4736 92.5951 14.4976C93.5391 15.5056 94.0111 16.8976 94.0111 18.6736V26.4976H89.9311V19.2256C89.9311 18.3296 89.6991 17.6336 89.2351 17.1376C88.7711 16.6416 88.1471 16.3936 87.3631 16.3936C86.5791 16.3936 85.9551 16.6416 85.4911 17.1376C85.0271 17.6336 84.7951 18.3296 84.7951 19.2256V26.4976H80.6911V13.1056H84.7951V14.8816C85.2111 14.2896 85.7711 13.8256 86.4751 13.4896C87.1791 13.1376 87.9711 12.9616 88.8511 12.9616ZM109.487 19.5856C109.487 19.9696 109.463 20.3696 109.415 20.7856H100.127C100.191 21.6176 100.455 22.2576 100.919 22.7056C101.399 23.1376 101.983 23.3536 102.671 23.3536C103.695 23.3536 104.407 22.9216 104.807 22.0576H109.175C108.951 22.9376 108.543 23.7296 107.951 24.4336C107.375 25.1376 106.647 25.6896 105.767 26.0896C104.887 26.4896 103.903 26.6896 102.815 26.6896C101.503 26.6896 100.335 26.4096 99.311 25.8496C98.287 25.2896 97.487 24.4896 96.911 23.4496C96.335 22.4096 96.047 21.1936 96.047 19.8016C96.047 18.4096 96.327 17.1936 96.887 16.1536C97.463 15.1136 98.263 14.3136 99.287 13.7536C100.311 13.1936 101.487 12.9136 102.815 12.9136C104.111 12.9136 105.263 13.1856 106.271 13.7296C107.279 14.2736 108.063 15.0496 108.623 16.0576C109.199 17.0656 109.487 18.2416 109.487 19.5856ZM105.287 18.5056C105.287 17.8016 105.047 17.2416 104.567 16.8256C104.087 16.4096 103.487 16.2016 102.767 16.2016C102.079 16.2016 101.495 16.4016 101.015 16.8016C100.551 17.2016 100.263 17.7696 100.151 18.5056H105.287ZM115.756 15.3376C116.236 14.6016 116.836 14.0256 117.556 13.6096C118.276 13.1776 119.076 12.9616 119.956 12.9616V17.3056H118.828C117.804 17.3056 117.036 17.5296 116.524 17.9776C116.012 18.4096 115.756 19.1776 115.756 20.2816V26.4976H111.652V13.1056H115.756V15.3376ZM127.942 22.6576L130.846 13.1056H135.214L130.462 26.4976H125.398L120.646 13.1056H125.038L127.942 22.6576ZM136.125 19.7776C136.125 18.4016 136.381 17.1936 136.893 16.1536C137.421 15.1136 138.133 14.3136 139.029 13.7536C139.925 13.1936 140.925 12.9136 142.029 12.9136C142.973 12.9136 143.797 13.1056 144.501 13.4896C145.221 13.8736 145.773 14.3776 146.157 15.0016V13.1056H150.261V26.4976H146.157V24.6016C145.757 25.2256 145.197 25.7296 144.477 26.1136C143.773 26.4976 142.949 26.6896 142.005 26.6896C140.917 26.6896 139.925 26.4096 139.029 25.8496C138.133 25.2736 137.421 24.4656 136.893 23.4256C136.381 22.3696 136.125 21.1536 136.125 19.7776ZM146.157 19.8016C146.157 18.7776 145.869 17.9696 145.293 17.3776C144.733 16.7856 144.045 16.4896 143.229 16.4896C142.413 16.4896 141.717 16.7856 141.141 17.3776C140.581 17.9536 140.301 18.7536 140.301 19.7776C140.301 20.8016 140.581 21.6176 141.141 22.2256C141.717 22.8176 142.413 23.1136 143.229 23.1136C144.045 23.1136 144.733 22.8176 145.293 22.2256C145.869 21.6336 146.157 20.8256 146.157 19.8016Z" fill="#170F49"/>
<path d="M0 17.2211C0 7.71013 7.71013 0 17.2211 0V19.2321C17.2211 28.7431 9.51093 36.4532 0 36.4532V17.2211Z" fill="#0061FE"/>
<path d="M19.7188 8.55816C19.7188 3.83162 23.5504 0 28.2769 0H29.8762C34.6027 0 38.4343 3.83162 38.4343 8.55816C38.4343 13.2847 34.6027 17.1163 29.8762 17.1163H28.2769C23.5504 17.1163 19.7188 13.2847 19.7188 8.55816Z" fill="#384260"/>
<path d="M19.7188 27.8951C19.7188 23.1685 23.5504 19.3369 28.2769 19.3369H29.8762C34.6027 19.3369 38.4343 23.1685 38.4343 27.8951C38.4343 32.6216 34.6027 36.4532 29.8762 36.4532H28.2769C23.5504 36.4532 19.7188 32.6216 19.7188 27.8951Z" fill="#384260" fill-opacity="0.7"/>
</svg>
