<svg width="121" height="121" viewBox="0 0 121 121" fill="none" xmlns="http://www.w3.org/2000/svg">
<path d="M121 60.5C121 93.9132 93.9132 121 60.5 121C27.0868 121 0 93.9132 0 60.5C0 27.0868 27.0868 0 60.5 0C93.9132 0 121 27.0868 121 60.5Z" fill="#FFD008"/>
<path d="M61.6172 57.2286L80.0879 59.8382L52.4837 90.8802L58.9415 61.7513L41.0724 62.0908L68.6766 31.0488L61.6172 57.2286Z" fill="white"/>
<path d="M16.1758 76.2605C20.4302 76.2605 24.6492 74.5693 24.6492 67.7871C24.6492 73.1928 28.8681 76.2605 33.1226 76.2605C26.9553 76.2605 24.6492 79.767 24.6492 84.7339C24.6492 79.5195 22.6938 76.2605 16.1758 76.2605Z" fill="white"/>
<path d="M87.8164 41.9816C92.0708 41.9816 96.2898 40.2135 96.2898 33.123C96.2898 38.7744 100.509 41.9816 104.763 41.9816C98.5959 41.9816 96.2898 45.6475 96.2898 50.8401C96.2898 45.3887 94.3344 41.9816 87.8164 41.9816Z" fill="white"/>
</svg>
